<svg xmlns="http://www.w3.org/2000/svg" xmlns:xlink="http://www.w3.org/1999/xlink" width="200" zoomAndPan="magnify" viewBox="45 155 330 74.999991" height="55" preserveAspectRatio="xMidYMid meet" version="1.0"><defs><g/><clipPath id="752c816ef5"><path d="M 88.589844 187.5 L 99.089844 187.5 L 99.089844 198 L 88.589844 198 Z M 88.589844 187.5 " clip-rule="nonzero"/></clipPath><clipPath id="51d5bbfec9"><path d="M 200.867188 187.5 L 211.367188 187.5 L 211.367188 198 L 200.867188 198 Z M 200.867188 187.5 " clip-rule="nonzero"/></clipPath></defs><rect x="-37.5" width="450" fill="#ffffff" y="-37.499999" height="449.999989" fill-opacity="1"/><rect x="-37.5" width="450" fill="#f6f5f1" y="-37.499999" height="449.999989" fill-opacity="1"/><path stroke-linecap="butt" transform="matrix(0.75, 0, 0, 0.75, 48.269409, 205.52672)" fill="none" stroke-linejoin="miter" d="M 2.000164 8.615415 L 2.000164 20.7925 C 2.000164 27.521667 7.453289 32.974792 14.182456 32.974792 L 370.15123 32.974792 C 378.708522 32.974792 385.640814 26.0425 385.640814 17.490416 L 385.640814 2.000832 " stroke="#000000" stroke-width="4" stroke-opacity="1" stroke-miterlimit="4"/><path stroke-linecap="round" transform="matrix(0.75, 0, 0, 0.75, 48.269409, 205.52672)" fill="none" stroke-linejoin="round" d="M 379.640814 10.000832 L 385.640814 2.000832 L 391.640814 10.000832 " stroke="#000000" stroke-width="4" stroke-opacity="1" stroke-miterlimit="4"/><path fill="#000000" d="M 91.234375 192.457031 L 92.386719 192.457031 C 92.402344 191.710938 92.5625 190.996094 92.871094 190.3125 C 92.421875 190.492188 92.050781 190.773438 91.757812 191.160156 C 91.460938 191.542969 91.289062 191.976562 91.234375 192.457031 Z M 91.234375 192.457031 " fill-opacity="1" fill-rule="nonzero"/><path fill="#000000" d="M 93.839844 190.125 C 93.507812 190.125 93.03125 191.023438 92.972656 192.457031 L 94.710938 192.457031 C 94.652344 191.023438 94.175781 190.125 93.839844 190.125 Z M 93.839844 190.125 " fill-opacity="1" fill-rule="nonzero"/><path fill="#000000" d="M 93.839844 195.375 C 94.175781 195.375 94.652344 194.476562 94.710938 193.042969 L 92.972656 193.042969 C 93.03125 194.476562 93.507812 195.375 93.839844 195.375 Z M 93.839844 195.375 " fill-opacity="1" fill-rule="nonzero"/><path fill="#000000" d="M 91.234375 193.042969 C 91.289062 193.523438 91.460938 193.957031 91.757812 194.339844 C 92.050781 194.726562 92.421875 195.007812 92.871094 195.1875 C 92.5625 194.503906 92.402344 193.789062 92.386719 193.042969 Z M 91.234375 193.042969 " fill-opacity="1" fill-rule="nonzero"/><g clip-path="url(#752c816ef5)"><path fill="#000000" d="M 93.839844 187.5 C 93.496094 187.5 93.15625 187.535156 92.816406 187.601562 C 92.480469 187.667969 92.152344 187.769531 91.832031 187.898438 C 91.511719 188.03125 91.210938 188.191406 90.925781 188.386719 C 90.636719 188.578125 90.371094 188.792969 90.128906 189.039062 C 89.886719 189.28125 89.667969 189.546875 89.476562 189.832031 C 89.285156 190.121094 89.121094 190.421875 88.992188 190.742188 C 88.859375 191.058594 88.757812 191.386719 88.691406 191.726562 C 88.625 192.0625 88.589844 192.40625 88.589844 192.75 C 88.589844 193.09375 88.625 193.4375 88.691406 193.773438 C 88.757812 194.113281 88.859375 194.441406 88.992188 194.757812 C 89.121094 195.078125 89.285156 195.378906 89.476562 195.667969 C 89.667969 195.953125 89.886719 196.21875 90.128906 196.460938 C 90.371094 196.707031 90.636719 196.921875 90.925781 197.113281 C 91.210938 197.308594 91.511719 197.46875 91.832031 197.601562 C 92.152344 197.730469 92.480469 197.832031 92.816406 197.898438 C 93.15625 197.964844 93.496094 198 93.839844 198 C 94.1875 198 94.527344 197.964844 94.867188 197.898438 C 95.203125 197.832031 95.53125 197.730469 95.851562 197.601562 C 96.167969 197.46875 96.472656 197.308594 96.757812 197.113281 C 97.042969 196.921875 97.308594 196.707031 97.554688 196.460938 C 97.796875 196.21875 98.015625 195.953125 98.207031 195.667969 C 98.398438 195.378906 98.558594 195.078125 98.691406 194.757812 C 98.824219 194.441406 98.921875 194.113281 98.988281 193.773438 C 99.058594 193.4375 99.089844 193.09375 99.089844 192.75 C 99.089844 192.40625 99.058594 192.0625 98.988281 191.726562 C 98.921875 191.386719 98.820312 191.058594 98.691406 190.742188 C 98.558594 190.421875 98.394531 190.121094 98.203125 189.835938 C 98.011719 189.546875 97.796875 189.28125 97.550781 189.039062 C 97.308594 188.796875 97.042969 188.578125 96.757812 188.386719 C 96.46875 188.195312 96.167969 188.035156 95.847656 187.902344 C 95.53125 187.769531 95.203125 187.667969 94.863281 187.601562 C 94.527344 187.535156 94.1875 187.5 93.839844 187.5 Z M 93.839844 195.957031 C 93.414062 195.957031 93.007812 195.875 92.613281 195.714844 C 92.21875 195.550781 91.875 195.320312 91.574219 195.019531 C 91.273438 194.71875 91.039062 194.371094 90.878906 193.976562 C 90.714844 193.585938 90.632812 193.175781 90.632812 192.75 C 90.632812 192.324219 90.714844 191.914062 90.878906 191.523438 C 91.039062 191.128906 91.273438 190.78125 91.574219 190.480469 C 91.875 190.179688 92.21875 189.949219 92.613281 189.785156 C 93.007812 189.625 93.414062 189.542969 93.839844 189.542969 C 94.265625 189.542969 94.675781 189.625 95.070312 189.785156 C 95.460938 189.949219 95.808594 190.179688 96.109375 190.480469 C 96.410156 190.78125 96.640625 191.128906 96.804688 191.523438 C 96.96875 191.914062 97.050781 192.324219 97.050781 192.75 C 97.050781 193.175781 96.96875 193.585938 96.804688 193.976562 C 96.640625 194.371094 96.410156 194.714844 96.109375 195.015625 C 95.808594 195.316406 95.460938 195.550781 95.066406 195.714844 C 94.675781 195.875 94.265625 195.957031 93.839844 195.957031 Z M 93.839844 195.957031 " fill-opacity="1" fill-rule="nonzero"/></g><path fill="#000000" d="M 94.808594 190.3125 C 95.121094 190.996094 95.28125 191.710938 95.292969 192.457031 L 96.449219 192.457031 C 96.394531 191.976562 96.21875 191.542969 95.925781 191.160156 C 95.632812 190.773438 95.261719 190.492188 94.808594 190.3125 Z M 94.808594 190.3125 " fill-opacity="1" fill-rule="nonzero"/><path fill="#000000" d="M 94.808594 195.1875 C 95.261719 195.007812 95.632812 194.726562 95.925781 194.339844 C 96.21875 193.957031 96.394531 193.523438 96.449219 193.042969 L 95.292969 193.042969 C 95.28125 193.789062 95.121094 194.503906 94.808594 195.1875 Z M 94.808594 195.1875 " fill-opacity="1" fill-rule="nonzero"/><g fill="#060606" fill-opacity="0.4"><g transform="translate(51.384433, 211.503985)"><g><path d="M 38.320312 -47.578125 L 30.125 -47.578125 C 29.292969 -47.578125 29.0625 -46.667969 29.59375 -46.0625 C 31.1875 -44.089844 31.796875 -44.242188 30.429688 -41.433594 L 24.8125 -30.050781 C 22.386719 -34.984375 20.183594 -39.460938 20.183594 -39.613281 C 18.820312 -42.34375 18.441406 -44.089844 20.109375 -46.0625 C 20.566406 -46.667969 20.414062 -47.578125 19.578125 -47.578125 L 0.757812 -47.578125 C -0.0742188 -47.578125 -0.378906 -46.667969 0.683594 -46.0625 C 4.25 -44.089844 5.617188 -42.34375 6.980469 -39.613281 L 14.113281 -24.890625 C 14.039062 -19.652344 13.507812 -12.75 11.003906 -10.851562 C 10.246094 -10.246094 10.167969 -8.953125 11.839844 -8.953125 L 27.089844 -8.953125 C 28.683594 -8.953125 28.683594 -10.246094 27.851562 -10.851562 C 25.421875 -12.75 24.890625 -19.652344 24.8125 -24.964844 L 26.027344 -27.46875 L 32.933594 -41.433594 C 34.375 -44.242188 34.753906 -44.089844 38.398438 -46.0625 C 39.460938 -46.667969 39.082031 -47.578125 38.320312 -47.578125 Z M 38.320312 -47.578125 "/></g></g></g><g fill="#060606" fill-opacity="0.4"><g transform="translate(83.557115, 211.503985)"><g><path d="M 30.429688 -10.546875 C 27.773438 -12.519531 27.320312 -14.191406 27.320312 -17 L 27.320312 -23.222656 C 27.320312 -31.417969 21.171875 -37.03125 13.050781 -37.03125 C 6.070312 -37.03125 2.277344 -33.542969 2.277344 -30.277344 C 2.277344 -25.875 13.660156 -27.394531 12.066406 -31.113281 C 11.15625 -33.085938 11.15625 -34.90625 12.292969 -34.90625 C 15.023438 -34.90625 16.695312 -29.898438 16.695312 -25.496094 L 16.695312 -23.222656 C 15.023438 -25.421875 12.292969 -26.863281 9.257812 -26.863281 C 4.171875 -26.863281 0 -22.839844 0 -17.910156 C 0 -12.976562 4.171875 -8.953125 9.257812 -8.953125 C 12.292969 -8.953125 15.023438 -10.394531 16.695312 -12.597656 C 16.695312 -12.597656 18.289062 -8.953125 22.386719 -8.953125 L 30.125 -8.953125 C 30.960938 -8.953125 31.1875 -9.941406 30.429688 -10.546875 Z M 12.597656 -13.050781 C 10.546875 -13.050781 8.878906 -15.253906 8.878906 -17.910156 C 8.878906 -20.566406 10.546875 -22.765625 12.597656 -22.765625 C 14.722656 -22.765625 16.390625 -20.566406 16.390625 -17.910156 C 16.390625 -15.253906 14.722656 -13.050781 12.597656 -13.050781 Z M 12.597656 -13.050781 "/></g></g></g><g fill="#060606" fill-opacity="0.4"><g transform="translate(116.109191, 211.503985)"><g><path d="M 10.472656 -32.933594 C 10.851562 -35.515625 14.492188 -35.816406 14.191406 -31.644531 C 13.582031 -24.964844 26.40625 -26.105469 23.753906 -31.949219 C 22.082031 -35.664062 16.390625 -37.109375 11.609375 -37.03125 L 11.457031 -37.03125 C 4.703125 -36.804688 -0.605469 -33.238281 0.0742188 -27.621094 C 0.988281 -20.035156 15.175781 -19.503906 13.660156 -13.050781 C 13.128906 -10.546875 9.636719 -10.167969 10.015625 -14.34375 C 10.546875 -21.019531 -2.277344 -19.882812 0.378906 -14.039062 C 2.050781 -10.394531 7.664062 -8.878906 12.519531 -8.953125 L 12.671875 -9.03125 C 19.273438 -9.183594 24.8125 -13.734375 24.132812 -17.984375 C 22.992188 -24.964844 9.332031 -26.40625 10.472656 -32.933594 Z M 10.472656 -32.933594 "/></g></g></g><g fill="#060606" fill-opacity="0.4"><g transform="translate(141.832166, 211.503985)"><g><path d="M 51.222656 -37.03125 L 42.496094 -37.03125 C 41.433594 -37.03125 41.207031 -36.121094 41.738281 -35.4375 C 44.621094 -31.949219 40.21875 -14.644531 40.21875 -14.644531 C 39.839844 -15.328125 32.859375 -30.734375 37.109375 -35.4375 C 37.714844 -36.121094 37.183594 -37.03125 36.425781 -37.03125 L 20.035156 -37.03125 C 18.441406 -37.03125 18.894531 -35.742188 19.804688 -35.132812 C 21.171875 -34.375 22.386719 -33.085938 23.753906 -30.125 C 23.601562 -23.828125 21.246094 -14.644531 21.246094 -14.644531 C 20.867188 -15.328125 13.886719 -30.734375 18.136719 -35.4375 C 18.742188 -36.121094 18.210938 -37.03125 17.378906 -37.03125 L 1.0625 -37.03125 C -0.53125 -37.03125 -0.152344 -35.742188 0.835938 -35.132812 C 3.035156 -33.84375 4.855469 -31.1875 7.664062 -22.082031 L 10.777344 -11.914062 C 11.382812 -9.863281 12.292969 -8.953125 14.644531 -8.953125 L 19.652344 -8.953125 C 21.324219 -8.953125 22.007812 -10.246094 22.460938 -11.761719 L 26.105469 -23.753906 C 26.332031 -23.222656 26.484375 -22.691406 26.636719 -22.082031 L 29.746094 -11.914062 C 30.355469 -9.863281 31.265625 -8.953125 33.617188 -8.953125 L 38.625 -8.953125 C 40.296875 -8.953125 40.976562 -10.246094 41.433594 -11.761719 L 46.746094 -28.988281 C 47.578125 -31.796875 48.339844 -33.921875 50.996094 -35.4375 C 51.980469 -36.046875 52.132812 -37.03125 51.222656 -37.03125 Z M 51.222656 -37.03125 "/></g></g></g><g fill="#060606" fill-opacity="0.4"><g transform="translate(195.023328, 211.503985)"><g><path d="M 30.429688 -10.546875 C 27.773438 -12.519531 27.320312 -14.191406 27.320312 -17 L 27.320312 -23.222656 C 27.320312 -31.417969 21.171875 -37.03125 13.050781 -37.03125 C 6.070312 -37.03125 2.277344 -33.542969 2.277344 -30.277344 C 2.277344 -25.875 13.660156 -27.394531 12.066406 -31.113281 C 11.15625 -33.085938 11.15625 -34.90625 12.292969 -34.90625 C 15.023438 -34.90625 16.695312 -29.898438 16.695312 -25.496094 L 16.695312 -23.222656 C 15.023438 -25.421875 12.292969 -26.863281 9.257812 -26.863281 C 4.171875 -26.863281 0 -22.839844 0 -17.910156 C 0 -12.976562 4.171875 -8.953125 9.257812 -8.953125 C 12.292969 -8.953125 15.023438 -10.394531 16.695312 -12.597656 C 16.695312 -12.597656 18.289062 -8.953125 22.386719 -8.953125 L 30.125 -8.953125 C 30.960938 -8.953125 31.1875 -9.941406 30.429688 -10.546875 Z M 12.597656 -13.050781 C 10.546875 -13.050781 8.878906 -15.253906 8.878906 -17.910156 C 8.878906 -20.566406 10.546875 -22.765625 12.597656 -22.765625 C 14.722656 -22.765625 16.390625 -20.566406 16.390625 -17.910156 C 16.390625 -15.253906 14.722656 -13.050781 12.597656 -13.050781 Z M 12.597656 -13.050781 "/></g></g></g><g fill="#060606" fill-opacity="0.4"><g transform="translate(227.575405, 211.503985)"><g><path d="M 36.878906 -10.546875 C 34.222656 -12.519531 33.769531 -14.191406 33.769531 -17 L 33.769531 -22.007812 C 33.769531 -30.355469 28.53125 -37.03125 20.335938 -37.03125 C 17.910156 -37.03125 15.9375 -35.4375 14.417969 -33.464844 L 14.644531 -35.058594 C 14.796875 -36.046875 15.554688 -37.257812 13.960938 -36.957031 C 11.078125 -36.347656 8.042969 -31.417969 0.757812 -31.417969 C 0 -31.417969 -0.304688 -30.503906 0.457031 -29.898438 C 3.109375 -27.851562 3.566406 -26.179688 3.566406 -23.371094 L 3.566406 -17 C 3.566406 -14.191406 3.109375 -12.519531 0.457031 -10.546875 C -0.304688 -9.941406 0 -8.953125 0.757812 -8.953125 L 15.554688 -8.953125 C 17.148438 -8.953125 17.148438 -10.246094 16.316406 -10.851562 C 14.039062 -12.597656 12.976562 -18.742188 13.8125 -28.382812 C 15.101562 -31.265625 16.617188 -33.542969 18.136719 -33.542969 C 23.371094 -33.542969 25.574219 -15.253906 20.714844 -10.851562 C 19.957031 -10.167969 19.882812 -8.953125 21.476562 -8.953125 L 36.578125 -8.953125 C 37.335938 -8.953125 37.640625 -9.941406 36.878906 -10.546875 Z M 36.878906 -10.546875 "/></g></g></g><g fill="#060606" fill-opacity="0.4"><g transform="translate(266.653073, 211.503985)"><g><path d="M 18.667969 -33.691406 L 15.175781 -33.691406 C 15.40625 -36.195312 15.785156 -38.777344 16.238281 -41.433594 C 16.390625 -42.417969 15.707031 -43.632812 14.191406 -43.027344 C 10.625 -41.738281 9.03125 -33.691406 1.746094 -33.691406 L 1.289062 -33.691406 C 0.304688 -33.691406 0 -32.859375 0 -31.871094 C 0 -30.886719 0.304688 -30.050781 1.289062 -30.050781 L 2.960938 -30.050781 C 4.023438 -27.546875 3.945312 -24.132812 3.945312 -22.160156 C 3.945312 -18.894531 4.023438 -13.203125 1.519531 -10.851562 C 0.757812 -10.167969 0.757812 -8.953125 1.746094 -8.953125 L 17.074219 -8.953125 C 18.742188 -8.953125 18.667969 -10.246094 17.910156 -10.851562 C 15.859375 -12.445312 14.492188 -20.261719 14.949219 -30.050781 L 18.667969 -30.050781 C 19.652344 -30.050781 19.957031 -30.886719 19.957031 -31.871094 C 19.957031 -32.859375 19.652344 -33.691406 18.667969 -33.691406 Z M 18.667969 -33.691406 "/></g></g></g><g fill="#060606" fill-opacity="0.4"><g transform="translate(287.975062, 211.503985)"><g><path d="M 37.109375 -10.546875 C 34.527344 -12.519531 33.996094 -14.191406 33.996094 -17 L 33.996094 -22.007812 C 33.996094 -30.355469 28.835938 -37.03125 20.566406 -37.03125 C 17.605469 -37.03125 15.328125 -35.363281 13.660156 -33.238281 C 13.8125 -37.410156 14.191406 -41.660156 14.949219 -45.683594 C 15.101562 -46.667969 15.785156 -47.960938 14.191406 -47.578125 C 11.382812 -47.046875 8.042969 -42.039062 0.757812 -42.039062 C 0 -42.039062 -0.304688 -41.128906 0.457031 -40.523438 C 3.109375 -38.550781 3.566406 -36.878906 3.566406 -34.074219 L 3.566406 -17 C 3.566406 -14.191406 3.109375 -12.519531 0.457031 -10.546875 C -0.304688 -9.941406 0 -8.953125 0.757812 -8.953125 L 15.785156 -8.953125 C 17.453125 -8.953125 17.378906 -10.246094 16.617188 -10.851562 C 14.796875 -12.21875 13.582031 -20.035156 13.582031 -29.214844 C 15.023438 -32.175781 17 -33.84375 18.363281 -33.84375 C 23.601562 -33.84375 25.875 -15.253906 20.945312 -10.851562 C 20.261719 -10.167969 20.183594 -8.953125 21.777344 -8.953125 L 36.878906 -8.953125 C 37.640625 -8.953125 37.941406 -9.941406 37.109375 -10.546875 Z M 37.109375 -10.546875 "/></g></g></g><g fill="#060606" fill-opacity="1"><g transform="translate(49.506338, 209.625893)"><g><path d="M 38.320312 -47.578125 L 30.125 -47.578125 C 29.292969 -47.578125 29.0625 -46.667969 29.59375 -46.0625 C 31.1875 -44.089844 31.796875 -44.242188 30.429688 -41.433594 L 24.8125 -30.050781 C 22.386719 -34.984375 20.183594 -39.460938 20.183594 -39.613281 C 18.820312 -42.34375 18.441406 -44.089844 20.109375 -46.0625 C 20.566406 -46.667969 20.414062 -47.578125 19.578125 -47.578125 L 0.757812 -47.578125 C -0.0742188 -47.578125 -0.378906 -46.667969 0.683594 -46.0625 C 4.25 -44.089844 5.617188 -42.34375 6.980469 -39.613281 L 14.113281 -24.890625 C 14.039062 -19.652344 13.507812 -12.75 11.003906 -10.851562 C 10.246094 -10.246094 10.167969 -8.953125 11.839844 -8.953125 L 27.089844 -8.953125 C 28.683594 -8.953125 28.683594 -10.246094 27.851562 -10.851562 C 25.421875 -12.75 24.890625 -19.652344 24.8125 -24.964844 L 26.027344 -27.46875 L 32.933594 -41.433594 C 34.375 -44.242188 34.753906 -44.089844 38.398438 -46.0625 C 39.460938 -46.667969 39.082031 -47.578125 38.320312 -47.578125 Z M 38.320312 -47.578125 "/></g></g></g><g fill="#060606" fill-opacity="1"><g transform="translate(81.67902, 209.625893)"><g><path d="M 30.429688 -10.546875 C 27.773438 -12.519531 27.320312 -14.191406 27.320312 -17 L 27.320312 -23.222656 C 27.320312 -31.417969 21.171875 -37.03125 13.050781 -37.03125 C 6.070312 -37.03125 2.277344 -33.542969 2.277344 -30.277344 C 2.277344 -25.875 13.660156 -27.394531 12.066406 -31.113281 C 11.15625 -33.085938 11.15625 -34.90625 12.292969 -34.90625 C 15.023438 -34.90625 16.695312 -29.898438 16.695312 -25.496094 L 16.695312 -23.222656 C 15.023438 -25.421875 12.292969 -26.863281 9.257812 -26.863281 C 4.171875 -26.863281 0 -22.839844 0 -17.910156 C 0 -12.976562 4.171875 -8.953125 9.257812 -8.953125 C 12.292969 -8.953125 15.023438 -10.394531 16.695312 -12.597656 C 16.695312 -12.597656 18.289062 -8.953125 22.386719 -8.953125 L 30.125 -8.953125 C 30.960938 -8.953125 31.1875 -9.941406 30.429688 -10.546875 Z M 12.597656 -13.050781 C 10.546875 -13.050781 8.878906 -15.253906 8.878906 -17.910156 C 8.878906 -20.566406 10.546875 -22.765625 12.597656 -22.765625 C 14.722656 -22.765625 16.390625 -20.566406 16.390625 -17.910156 C 16.390625 -15.253906 14.722656 -13.050781 12.597656 -13.050781 Z M 12.597656 -13.050781 "/></g></g></g><g fill="#060606" fill-opacity="1"><g transform="translate(114.231096, 209.625893)"><g><path d="M 10.472656 -32.933594 C 10.851562 -35.515625 14.492188 -35.816406 14.191406 -31.644531 C 13.582031 -24.964844 26.40625 -26.105469 23.753906 -31.949219 C 22.082031 -35.664062 16.390625 -37.109375 11.609375 -37.03125 L 11.457031 -37.03125 C 4.703125 -36.804688 -0.605469 -33.238281 0.0742188 -27.621094 C 0.988281 -20.035156 15.175781 -19.503906 13.660156 -13.050781 C 13.128906 -10.546875 9.636719 -10.167969 10.015625 -14.34375 C 10.546875 -21.019531 -2.277344 -19.882812 0.378906 -14.039062 C 2.050781 -10.394531 7.664062 -8.878906 12.519531 -8.953125 L 12.671875 -9.03125 C 19.273438 -9.183594 24.8125 -13.734375 24.132812 -17.984375 C 22.992188 -24.964844 9.332031 -26.40625 10.472656 -32.933594 Z M 10.472656 -32.933594 "/></g></g></g><g fill="#060606" fill-opacity="1"><g transform="translate(139.954071, 209.625893)"><g><path d="M 51.222656 -37.03125 L 42.496094 -37.03125 C 41.433594 -37.03125 41.207031 -36.121094 41.738281 -35.4375 C 44.621094 -31.949219 40.21875 -14.644531 40.21875 -14.644531 C 39.839844 -15.328125 32.859375 -30.734375 37.109375 -35.4375 C 37.714844 -36.121094 37.183594 -37.03125 36.425781 -37.03125 L 20.035156 -37.03125 C 18.441406 -37.03125 18.894531 -35.742188 19.804688 -35.132812 C 21.171875 -34.375 22.386719 -33.085938 23.753906 -30.125 C 23.601562 -23.828125 21.246094 -14.644531 21.246094 -14.644531 C 20.867188 -15.328125 13.886719 -30.734375 18.136719 -35.4375 C 18.742188 -36.121094 18.210938 -37.03125 17.378906 -37.03125 L 1.0625 -37.03125 C -0.53125 -37.03125 -0.152344 -35.742188 0.835938 -35.132812 C 3.035156 -33.84375 4.855469 -31.1875 7.664062 -22.082031 L 10.777344 -11.914062 C 11.382812 -9.863281 12.292969 -8.953125 14.644531 -8.953125 L 19.652344 -8.953125 C 21.324219 -8.953125 22.007812 -10.246094 22.460938 -11.761719 L 26.105469 -23.753906 C 26.332031 -23.222656 26.484375 -22.691406 26.636719 -22.082031 L 29.746094 -11.914062 C 30.355469 -9.863281 31.265625 -8.953125 33.617188 -8.953125 L 38.625 -8.953125 C 40.296875 -8.953125 40.976562 -10.246094 41.433594 -11.761719 L 46.746094 -28.988281 C 47.578125 -31.796875 48.339844 -33.921875 50.996094 -35.4375 C 51.980469 -36.046875 52.132812 -37.03125 51.222656 -37.03125 Z M 51.222656 -37.03125 "/></g></g></g><g fill="#060606" fill-opacity="1"><g transform="translate(193.145234, 209.625893)"><g><path d="M 30.429688 -10.546875 C 27.773438 -12.519531 27.320312 -14.191406 27.320312 -17 L 27.320312 -23.222656 C 27.320312 -31.417969 21.171875 -37.03125 13.050781 -37.03125 C 6.070312 -37.03125 2.277344 -33.542969 2.277344 -30.277344 C 2.277344 -25.875 13.660156 -27.394531 12.066406 -31.113281 C 11.15625 -33.085938 11.15625 -34.90625 12.292969 -34.90625 C 15.023438 -34.90625 16.695312 -29.898438 16.695312 -25.496094 L 16.695312 -23.222656 C 15.023438 -25.421875 12.292969 -26.863281 9.257812 -26.863281 C 4.171875 -26.863281 0 -22.839844 0 -17.910156 C 0 -12.976562 4.171875 -8.953125 9.257812 -8.953125 C 12.292969 -8.953125 15.023438 -10.394531 16.695312 -12.597656 C 16.695312 -12.597656 18.289062 -8.953125 22.386719 -8.953125 L 30.125 -8.953125 C 30.960938 -8.953125 31.1875 -9.941406 30.429688 -10.546875 Z M 12.597656 -13.050781 C 10.546875 -13.050781 8.878906 -15.253906 8.878906 -17.910156 C 8.878906 -20.566406 10.546875 -22.765625 12.597656 -22.765625 C 14.722656 -22.765625 16.390625 -20.566406 16.390625 -17.910156 C 16.390625 -15.253906 14.722656 -13.050781 12.597656 -13.050781 Z M 12.597656 -13.050781 "/></g></g></g><g fill="#060606" fill-opacity="1"><g transform="translate(225.69731, 209.625893)"><g><path d="M 36.878906 -10.546875 C 34.222656 -12.519531 33.769531 -14.191406 33.769531 -17 L 33.769531 -22.007812 C 33.769531 -30.355469 28.53125 -37.03125 20.335938 -37.03125 C 17.910156 -37.03125 15.9375 -35.4375 14.417969 -33.464844 L 14.644531 -35.058594 C 14.796875 -36.046875 15.554688 -37.257812 13.960938 -36.957031 C 11.078125 -36.347656 8.042969 -31.417969 0.757812 -31.417969 C 0 -31.417969 -0.304688 -30.503906 0.457031 -29.898438 C 3.109375 -27.851562 3.566406 -26.179688 3.566406 -23.371094 L 3.566406 -17 C 3.566406 -14.191406 3.109375 -12.519531 0.457031 -10.546875 C -0.304688 -9.941406 0 -8.953125 0.757812 -8.953125 L 15.554688 -8.953125 C 17.148438 -8.953125 17.148438 -10.246094 16.316406 -10.851562 C 14.039062 -12.597656 12.976562 -18.742188 13.8125 -28.382812 C 15.101562 -31.265625 16.617188 -33.542969 18.136719 -33.542969 C 23.371094 -33.542969 25.574219 -15.253906 20.714844 -10.851562 C 19.957031 -10.167969 19.882812 -8.953125 21.476562 -8.953125 L 36.578125 -8.953125 C 37.335938 -8.953125 37.640625 -9.941406 36.878906 -10.546875 Z M 36.878906 -10.546875 "/></g></g></g><g fill="#060606" fill-opacity="1"><g transform="translate(264.774978, 209.625893)"><g><path d="M 18.667969 -33.691406 L 15.175781 -33.691406 C 15.40625 -36.195312 15.785156 -38.777344 16.238281 -41.433594 C 16.390625 -42.417969 15.707031 -43.632812 14.191406 -43.027344 C 10.625 -41.738281 9.03125 -33.691406 1.746094 -33.691406 L 1.289062 -33.691406 C 0.304688 -33.691406 0 -32.859375 0 -31.871094 C 0 -30.886719 0.304688 -30.050781 1.289062 -30.050781 L 2.960938 -30.050781 C 4.023438 -27.546875 3.945312 -24.132812 3.945312 -22.160156 C 3.945312 -18.894531 4.023438 -13.203125 1.519531 -10.851562 C 0.757812 -10.167969 0.757812 -8.953125 1.746094 -8.953125 L 17.074219 -8.953125 C 18.742188 -8.953125 18.667969 -10.246094 17.910156 -10.851562 C 15.859375 -12.445312 14.492188 -20.261719 14.949219 -30.050781 L 18.667969 -30.050781 C 19.652344 -30.050781 19.957031 -30.886719 19.957031 -31.871094 C 19.957031 -32.859375 19.652344 -33.691406 18.667969 -33.691406 Z M 18.667969 -33.691406 "/></g></g></g><g fill="#060606" fill-opacity="1"><g transform="translate(286.096968, 209.625893)"><g><path d="M 37.109375 -10.546875 C 34.527344 -12.519531 33.996094 -14.191406 33.996094 -17 L 33.996094 -22.007812 C 33.996094 -30.355469 28.835938 -37.03125 20.566406 -37.03125 C 17.605469 -37.03125 15.328125 -35.363281 13.660156 -33.238281 C 13.8125 -37.410156 14.191406 -41.660156 14.949219 -45.683594 C 15.101562 -46.667969 15.785156 -47.960938 14.191406 -47.578125 C 11.382812 -47.046875 8.042969 -42.039062 0.757812 -42.039062 C 0 -42.039062 -0.304688 -41.128906 0.457031 -40.523438 C 3.109375 -38.550781 3.566406 -36.878906 3.566406 -34.074219 L 3.566406 -17 C 3.566406 -14.191406 3.109375 -12.519531 0.457031 -10.546875 C -0.304688 -9.941406 0 -8.953125 0.757812 -8.953125 L 15.785156 -8.953125 C 17.453125 -8.953125 17.378906 -10.246094 16.617188 -10.851562 C 14.796875 -12.21875 13.582031 -20.035156 13.582031 -29.214844 C 15.023438 -32.175781 17 -33.84375 18.363281 -33.84375 C 23.601562 -33.84375 25.875 -15.253906 20.945312 -10.851562 C 20.261719 -10.167969 20.183594 -8.953125 21.777344 -8.953125 L 36.878906 -8.953125 C 37.640625 -8.953125 37.941406 -9.941406 37.109375 -10.546875 Z M 37.109375 -10.546875 "/></g></g></g><path fill="#000000" d="M 203.507812 192.457031 L 204.664062 192.457031 C 204.675781 191.710938 204.839844 190.996094 205.148438 190.3125 C 204.699219 190.492188 204.324219 190.773438 204.03125 191.160156 C 203.738281 191.542969 203.5625 191.976562 203.507812 192.457031 Z M 203.507812 192.457031 " fill-opacity="1" fill-rule="nonzero"/><path fill="#000000" d="M 206.117188 190.125 C 205.78125 190.125 205.304688 191.023438 205.246094 192.457031 L 206.984375 192.457031 C 206.929688 191.023438 206.453125 190.125 206.117188 190.125 Z M 206.117188 190.125 " fill-opacity="1" fill-rule="nonzero"/><path fill="#000000" d="M 206.117188 195.375 C 206.453125 195.375 206.929688 194.476562 206.984375 193.042969 L 205.246094 193.042969 C 205.304688 194.476562 205.78125 195.375 206.117188 195.375 Z M 206.117188 195.375 " fill-opacity="1" fill-rule="nonzero"/><path fill="#000000" d="M 203.507812 193.042969 C 203.5625 193.523438 203.738281 193.957031 204.03125 194.339844 C 204.324219 194.726562 204.699219 195.007812 205.148438 195.1875 C 204.839844 194.503906 204.675781 193.789062 204.664062 193.042969 Z M 203.507812 193.042969 " fill-opacity="1" fill-rule="nonzero"/><g clip-path="url(#51d5bbfec9)"><path fill="#000000" d="M 206.117188 187.5 C 205.773438 187.5 205.429688 187.535156 205.09375 187.601562 C 204.753906 187.667969 204.425781 187.769531 204.109375 187.898438 C 203.789062 188.03125 203.488281 188.191406 203.199219 188.386719 C 202.914062 188.578125 202.648438 188.792969 202.40625 189.039062 C 202.160156 189.28125 201.941406 189.546875 201.75 189.832031 C 201.558594 190.121094 201.398438 190.421875 201.265625 190.742188 C 201.132812 191.058594 201.035156 191.386719 200.96875 191.726562 C 200.898438 192.0625 200.867188 192.40625 200.867188 192.75 C 200.867188 193.09375 200.898438 193.4375 200.96875 193.773438 C 201.035156 194.113281 201.132812 194.441406 201.265625 194.757812 C 201.398438 195.078125 201.558594 195.378906 201.75 195.667969 C 201.941406 195.953125 202.160156 196.21875 202.40625 196.460938 C 202.648438 196.707031 202.914062 196.921875 203.199219 197.113281 C 203.488281 197.308594 203.789062 197.46875 204.109375 197.601562 C 204.425781 197.730469 204.753906 197.832031 205.09375 197.898438 C 205.429688 197.964844 205.773438 198 206.117188 198 C 206.460938 198 206.804688 197.964844 207.140625 197.898438 C 207.480469 197.832031 207.808594 197.730469 208.125 197.601562 C 208.445312 197.46875 208.746094 197.308594 209.035156 197.113281 C 209.320312 196.921875 209.585938 196.707031 209.828125 196.460938 C 210.074219 196.21875 210.289062 195.953125 210.480469 195.667969 C 210.671875 195.378906 210.835938 195.078125 210.96875 194.757812 C 211.097656 194.441406 211.199219 194.113281 211.265625 193.773438 C 211.332031 193.4375 211.367188 193.09375 211.367188 192.75 C 211.367188 192.40625 211.332031 192.0625 211.265625 191.726562 C 211.195312 191.386719 211.097656 191.058594 210.964844 190.742188 C 210.832031 190.421875 210.671875 190.121094 210.480469 189.835938 C 210.289062 189.546875 210.070312 189.28125 209.828125 189.039062 C 209.582031 188.796875 209.320312 188.578125 209.03125 188.386719 C 208.746094 188.195312 208.441406 188.035156 208.125 187.902344 C 207.804688 187.769531 207.476562 187.667969 207.140625 187.601562 C 206.800781 187.535156 206.460938 187.5 206.117188 187.5 Z M 206.117188 195.957031 C 205.691406 195.957031 205.28125 195.875 204.890625 195.714844 C 204.496094 195.550781 204.148438 195.320312 203.847656 195.019531 C 203.546875 194.71875 203.316406 194.371094 203.152344 193.976562 C 202.988281 193.585938 202.910156 193.175781 202.910156 192.75 C 202.910156 192.324219 202.988281 191.914062 203.152344 191.523438 C 203.316406 191.128906 203.546875 190.78125 203.847656 190.480469 C 204.148438 190.179688 204.496094 189.949219 204.890625 189.785156 C 205.28125 189.625 205.691406 189.542969 206.117188 189.542969 C 206.542969 189.542969 206.953125 189.625 207.34375 189.785156 C 207.738281 189.949219 208.085938 190.179688 208.386719 190.480469 C 208.6875 190.78125 208.917969 191.128906 209.082031 191.523438 C 209.242188 191.914062 209.324219 192.324219 209.324219 192.75 C 209.324219 193.175781 209.242188 193.585938 209.078125 193.976562 C 208.917969 194.371094 208.683594 194.714844 208.382812 195.015625 C 208.082031 195.316406 207.738281 195.550781 207.34375 195.714844 C 206.949219 195.875 206.542969 195.957031 206.117188 195.957031 Z M 206.117188 195.957031 " fill-opacity="1" fill-rule="nonzero"/></g><path fill="#000000" d="M 207.085938 190.3125 C 207.394531 190.996094 207.554688 191.710938 207.570312 192.457031 L 208.722656 192.457031 C 208.667969 191.976562 208.496094 191.542969 208.203125 191.160156 C 207.90625 190.773438 207.535156 190.492188 207.085938 190.3125 Z M 207.085938 190.3125 " fill-opacity="1" fill-rule="nonzero"/><path fill="#000000" d="M 207.085938 195.1875 C 207.535156 195.007812 207.90625 194.726562 208.203125 194.339844 C 208.496094 193.957031 208.667969 193.523438 208.722656 193.042969 L 207.570312 193.042969 C 207.554688 193.789062 207.394531 194.503906 207.085938 195.1875 Z M 207.085938 195.1875 " fill-opacity="1" fill-rule="nonzero"/></svg>